<svg width="61" height="61" viewBox="0 0 61 61" fill="none" xmlns="http://www.w3.org/2000/svg">
<g id="Image [MuiBox-root]" clip-path="url(#clip0_10_254)">
<path id="Vector" d="M51.7159 9.70635C46.0514 4.05484 38.5073 0.922363 30.5065 0.922363C22.5056 0.922363 14.9485 4.05484 9.28393 9.70635C3.61936 15.3579 0.499939 22.915 0.499939 30.9419C0.499939 38.9689 3.63242 46.4738 9.28393 52.1514C14.9485 57.816 22.4925 60.9354 30.5065 60.9354C38.5204 60.9354 46.0383 57.816 51.7159 52.1514C54.5098 49.3726 56.7246 46.0672 58.2324 42.4265C59.7402 38.7859 60.5109 34.8824 60.4999 30.9419C60.4999 22.928 57.3675 15.384 51.7159 9.7194V9.70635ZM42.2141 41.253C44.7331 38.3946 46.1166 34.7662 46.1166 30.9289C46.1166 27.0786 44.7331 23.4501 42.201 20.5917L51.0111 11.7947C55.8795 17.0155 58.5421 23.7633 58.5421 30.9289C58.5421 38.0944 55.8795 44.8423 51.0111 50.0501L42.2141 41.253ZM20.848 40.5874C18.5639 38.3033 17.1934 35.3535 16.8932 32.1688C17.8949 32.6147 18.9982 32.7821 20.087 32.6534C21.1758 32.5248 22.2097 32.1049 23.0799 31.4379C24.1412 32.2645 25.4479 32.7134 26.7932 32.7134C28.1384 32.7134 29.4452 32.2645 30.5065 31.4379C31.5667 32.2613 32.8708 32.7083 34.2132 32.7083C35.5556 32.7083 36.8598 32.2613 37.92 31.4379C38.7876 32.1101 39.8219 32.5332 40.9119 32.662C42.0018 32.7908 43.1063 32.6203 44.1066 32.1688C43.8195 35.3535 42.436 38.3033 40.1649 40.5874C38.8988 41.8583 37.3933 42.8656 35.7355 43.5512C34.0777 44.2367 32.3004 44.5868 30.5065 44.5813C28.7125 44.5868 26.9352 44.2367 25.2774 43.5512C23.6196 42.8656 22.1141 41.8583 20.848 40.5874ZM20.848 21.2704C22.113 19.9971 23.618 18.9874 25.2759 18.2996C26.9338 17.6118 28.7116 17.2596 30.5065 17.2635C32.3013 17.2596 34.0792 17.6118 35.737 18.2996C37.3949 18.9874 38.8999 19.9971 40.1649 21.2704C42.5012 23.6067 43.8848 26.6348 44.1197 29.8978C43.3114 30.511 42.3053 30.8048 41.294 30.723C40.2827 30.6411 39.337 30.1893 38.6379 29.454C38.5464 29.3572 38.4361 29.2802 38.3138 29.2275C38.1915 29.1748 38.0597 29.1476 37.9265 29.1476C37.7933 29.1476 37.6616 29.1748 37.5393 29.2275C37.417 29.2802 37.3067 29.3572 37.2152 29.454C36.8306 29.865 36.3657 30.1926 35.8493 30.4166C35.333 30.6406 34.7761 30.7562 34.2132 30.7562C33.6504 30.7562 33.0935 30.6406 32.5771 30.4166C32.0607 30.1926 31.5959 29.865 31.2113 29.454C31.1198 29.3572 31.0095 29.2802 30.8872 29.2275C30.7649 29.1748 30.6331 29.1476 30.4999 29.1476C30.3668 29.1476 30.235 29.1748 30.1127 29.2275C29.9904 29.2802 29.8801 29.3572 29.7886 29.454C29.0055 30.2763 27.9352 30.7331 26.7866 30.7331C25.6511 30.7331 24.5809 30.2763 23.7847 29.454C23.6932 29.3572 23.5829 29.2802 23.4606 29.2275C23.3383 29.1748 23.2065 29.1476 23.0734 29.1476C22.9402 29.1476 22.8084 29.1748 22.6861 29.2275C22.5638 29.2802 22.4535 29.3572 22.362 29.454C21.6644 30.1919 20.7184 30.6455 19.7062 30.7274C18.6941 30.8094 17.6874 30.5138 16.8802 29.8978C17.1151 26.6348 18.4986 23.6067 20.848 21.2704ZM49.6276 10.4112L40.8306 19.2082C37.9843 16.6851 34.31 15.2962 30.5065 15.3057C26.6561 15.3057 23.0277 16.6892 20.1693 19.2213L11.3722 10.3981C16.593 5.54277 23.3409 2.88016 30.5195 2.88016C37.672 2.88016 44.4329 5.55582 49.6407 10.4112H49.6276ZM2.45774 30.9419C2.45774 23.7633 5.13339 17.0155 9.98874 11.8077L18.7858 20.6048C16.2667 23.4632 14.8832 27.0916 14.8832 30.9419C14.8832 34.7923 16.2667 38.4077 18.7988 41.253L9.98874 50.0631C5.12861 44.8798 2.43431 38.0343 2.45774 30.9289V30.9419ZM11.3722 51.4336L20.1693 42.6496C23.0277 45.1686 26.6561 46.5521 30.5065 46.5521C34.3437 46.5521 37.9722 45.1686 40.8175 42.6365L49.6276 51.4466C44.4476 56.3036 37.6074 58.9977 30.5065 58.9776C23.3993 58.9975 16.5535 56.2984 11.3722 51.4336Z" fill="black"/>
<path id="Vector_2" d="M31.2374 8.55771C35.5837 8.68823 39.7473 10.0717 43.2844 12.5516C43.3904 12.6261 43.5101 12.6788 43.6366 12.7066C43.7631 12.7345 43.8939 12.7369 44.0214 12.7139C44.1489 12.6908 44.2705 12.6427 44.3792 12.5723C44.488 12.5018 44.5816 12.4105 44.6548 12.3036C44.9681 11.8599 44.8506 11.2595 44.4068 10.9462C40.5525 8.25771 35.9997 6.74767 31.3026 6.59991C31.1741 6.59562 31.0459 6.6167 30.9255 6.66194C30.8051 6.70717 30.6948 6.77568 30.6009 6.86355C30.507 6.95142 30.4313 7.05693 30.3781 7.17405C30.325 7.29118 30.2954 7.41763 30.2911 7.54618C30.2868 7.67473 30.3079 7.80287 30.3531 7.92327C30.3984 8.04368 30.4669 8.15399 30.5547 8.24792C30.6426 8.34185 30.7481 8.41755 30.8652 8.47071C30.9824 8.52386 31.1088 8.55342 31.2374 8.55771ZM52.0553 19.5866C51.6954 18.9071 51.3034 18.2451 50.8806 17.6027C50.8103 17.4948 50.7195 17.4017 50.6132 17.3288C50.507 17.2559 50.3874 17.2047 50.2614 17.178C50.1353 17.1514 50.0053 17.1498 49.8786 17.1734C49.752 17.197 49.6312 17.2453 49.5232 17.3156C49.4152 17.3859 49.3221 17.4767 49.2493 17.583C49.1764 17.6892 49.1252 17.8088 49.0985 17.9348C49.0718 18.0609 49.0703 18.1909 49.0939 18.3176C49.1175 18.4443 49.1658 18.565 49.2361 18.673C49.6276 19.2603 49.9931 19.8738 50.3194 20.5003C50.3794 20.6143 50.4612 20.7153 50.5603 20.7977C50.6593 20.88 50.7736 20.942 50.8966 20.9802C51.0196 21.0184 51.149 21.032 51.2772 21.0202C51.4055 21.0084 51.5302 20.9714 51.6442 20.9114C51.7581 20.8514 51.8592 20.7696 51.9415 20.6705C52.0239 20.5715 52.0859 20.4572 52.1241 20.3342C52.1623 20.2112 52.1758 20.0818 52.164 19.9536C52.1522 19.8253 52.1153 19.7006 52.0553 19.5866ZM53.8826 24.1548C53.8466 24.0314 53.7866 23.9163 53.7061 23.8161C53.6257 23.7158 53.5262 23.6324 53.4135 23.5706C53.3008 23.5088 53.177 23.4698 53.0492 23.4558C52.9214 23.4419 52.7921 23.4532 52.6687 23.4892C52.5453 23.5252 52.4302 23.5851 52.33 23.6656C52.2297 23.7461 52.1463 23.8455 52.0845 23.9582C52.0227 24.071 51.9837 24.1947 51.9697 24.3225C51.9558 24.4503 51.9671 24.5796 52.0031 24.703C53.0472 28.3315 53.1647 32.2079 52.3294 35.8886C52.2914 36.017 52.2802 36.1518 52.2965 36.2848C52.3127 36.4177 52.3561 36.5458 52.4239 36.6613C52.4916 36.7768 52.5824 36.8772 52.6905 36.9562C52.7986 37.0353 52.9217 37.0913 53.0523 37.1208C53.183 37.1503 53.3182 37.1527 53.4498 37.1279C53.5814 37.103 53.7065 37.0514 53.8173 36.9763C53.9282 36.9012 54.0225 36.8041 54.0943 36.6911C54.1661 36.5781 54.214 36.4515 54.235 36.3193C55.1486 32.3123 55.0181 28.1096 53.8956 24.1679L53.8826 24.1548ZM34.2132 39.0863C35.8969 39.0863 37.4632 38.4076 38.6248 37.1938C38.7184 37.1022 38.7927 36.9927 38.8433 36.8718C38.8939 36.751 38.9196 36.6212 38.9191 36.4902C38.9186 36.3592 38.8918 36.2296 38.8403 36.1091C38.7888 35.9887 38.7136 35.8798 38.6192 35.7889C38.5249 35.6981 38.4132 35.627 38.2909 35.5801C38.1686 35.5332 38.0381 35.5113 37.9072 35.5157C37.7762 35.5201 37.6475 35.5508 37.5287 35.6059C37.4098 35.661 37.3032 35.7393 37.2152 35.8364C36.8306 36.2473 36.3657 36.575 35.8493 36.799C35.333 37.023 34.7761 37.1385 34.2132 37.1385C33.6504 37.1385 33.0935 37.023 32.5771 36.799C32.0607 36.575 31.5959 36.2473 31.2113 35.8364C31.1198 35.7396 31.0095 35.6625 30.8872 35.6098C30.7649 35.5571 30.6331 35.53 30.4999 35.53C30.3668 35.53 30.235 35.5571 30.1127 35.6098C29.9904 35.6625 29.8801 35.7396 29.7886 35.8364C29.404 36.2473 28.9391 36.575 28.4227 36.799C27.9064 37.023 27.3495 37.1385 26.7866 37.1385C26.2238 37.1385 25.6669 37.023 25.1505 36.799C24.6342 36.575 24.1693 36.2473 23.7847 35.8364C23.6967 35.7393 23.5901 35.661 23.4712 35.6059C23.3523 35.5508 23.2236 35.5201 23.0927 35.5157C22.9618 35.5113 22.8313 35.5332 22.709 35.5801C22.5866 35.627 22.475 35.6981 22.3806 35.7889C22.2863 35.8798 22.2111 35.9887 22.1596 36.1091C22.1081 36.2296 22.0813 36.3592 22.0807 36.4902C22.0802 36.6212 22.106 36.751 22.1566 36.8718C22.2071 36.9927 22.2814 37.1022 22.3751 37.1938C23.4074 38.2947 24.8144 38.9696 26.3191 39.0855C27.8239 39.2015 29.3177 38.7501 30.5065 37.8203C31.5506 38.6425 32.8558 39.0863 34.2132 39.0863Z" fill="black"/>
</g>
<defs>
<clipPath id="clip0_10_254">
<rect width="60" height="60" fill="white" transform="translate(0.499939 0.922363)"/>
</clipPath>
</defs>
</svg>
