<svg width="56" height="55" viewBox="0 0 56 55" fill="none" xmlns="http://www.w3.org/2000/svg">
<g id="Image [MuiBox-root]" clip-path="url(#clip0_10_141)">
<path id="Vector" d="M20.5891 14.4665V12.6553C20.8405 12.6758 21.0446 12.7219 21.3454 12.8659C21.5602 12.969 21.9437 13.2376 22.2209 12.7671C22.2649 12.6919 22.2982 12.6145 22.3175 12.535C22.4357 12.086 22.1736 11.8647 21.7214 11.6982C21.3564 11.5766 20.9739 11.5156 20.5891 11.5177V11.247C20.5891 11.0945 20.4001 10.9871 20.2389 10.9871C20.0649 10.9871 19.8887 11.0934 19.8887 11.2449V11.5328C19.0895 11.6381 18.3923 11.9657 18.0561 12.6908C17.8423 13.1527 17.8219 13.9057 18.0722 14.3687C18.4504 15.0723 19.1357 15.3226 19.8887 15.6094V17.658C19.3506 17.5935 19.0938 17.3873 18.5707 16.9941C18.315 16.8018 18.0647 16.8749 17.8767 17.1391C17.6425 17.4668 17.6587 17.7611 17.8714 18.0479C18.272 18.5883 19.1443 18.8783 19.8887 18.8783V19.1683C19.8887 19.3241 20.0681 19.4294 20.2389 19.4294C20.3979 19.4294 20.5891 19.3241 20.5891 19.1716V18.8525C21.1649 18.7634 21.6343 18.5356 21.9942 18.1682C22.3541 17.8009 22.5345 17.3013 22.5345 16.6697C22.5345 15.3753 21.6838 14.865 20.5891 14.4676V14.4665ZM19.9715 14.2409C19.3452 13.9906 19.1475 13.7897 19.1475 13.4062C19.1475 12.9583 19.5278 12.7563 19.9715 12.6865V14.2409ZM20.5064 17.6483V15.8554C21.1477 16.1358 21.2788 16.442 21.2788 16.8029C21.2788 17.2831 20.9597 17.5506 20.5064 17.6472V17.6483ZM34.3187 2.88962C30.4805 2.88962 27.3578 6.0113 27.3578 9.85056C27.3578 13.6898 30.4805 16.8104 34.3187 16.8104C38.1569 16.8104 41.2797 13.6877 41.2797 9.84949C41.2797 6.0113 38.1569 2.88855 34.3187 2.88855V2.88962ZM34.3187 15.1991C31.3689 15.1991 28.9691 12.7993 28.9691 9.84949C28.9691 6.89968 31.3689 4.49988 34.3187 4.49988C37.2685 4.49988 39.6683 6.89968 39.6683 9.84949C39.6669 11.2679 39.1028 12.6277 38.0999 13.6307C37.097 14.6336 35.7371 15.1977 34.3187 15.1991Z" fill="black"/>
<path id="Vector_2" d="M34.7667 9.18455V7.37126C35.1673 7.40349 35.3747 7.50447 35.7657 7.69998C35.9848 7.81062 36.2383 7.75584 36.3995 7.48298C36.5617 7.20476 36.596 6.86853 36.3468 6.66228C35.9537 6.33464 35.2748 6.23259 34.7677 6.23259V5.96296C34.7677 5.80935 34.5776 5.703 34.4165 5.703C34.2424 5.703 34.0673 5.80935 34.0673 5.96082V6.24871C33.8063 6.28308 33.556 6.34539 33.3154 6.43347C32.5527 6.71707 32.0693 7.33152 32.0693 8.25642C32.0693 9.49499 32.9641 9.90427 34.0673 10.3254V12.3739C33.5281 12.3094 33.2724 12.1032 32.7493 11.71C32.4925 11.5177 32.2422 11.5908 32.0543 11.8551C31.8211 12.1827 31.8362 12.476 32.0489 12.7628C32.4485 13.302 33.31 13.5942 34.0673 13.5942V13.8843C34.0673 14.04 34.2457 14.1442 34.4165 14.1442C34.5754 14.1442 34.7667 14.04 34.7667 13.8864V13.5684C35.8043 13.4073 36.7121 12.752 36.7121 11.3856C36.7121 10.1309 35.9204 9.60242 34.7677 9.18347L34.7667 9.18455ZM34.149 8.95681C33.5238 8.70759 33.3261 8.50564 33.3261 8.12322C33.3261 7.67419 33.7053 7.47332 34.149 7.40349V8.95681ZM34.685 12.3642V10.5735C35.3252 10.8539 35.4563 11.16 35.4563 11.5199C35.4563 12.0011 35.1383 12.2686 34.685 12.3642Z" fill="black"/>
<path id="Vector_3" d="M50.6114 36.3709C50.8251 36.3709 51.03 36.286 51.1811 36.1349C51.3322 35.9838 51.4171 35.7789 51.4171 35.5652V22.4404C51.4171 21.2856 50.4782 20.3457 49.3223 20.3457H28.4954C28.8783 19.7328 29.1928 19.0797 29.4332 18.3981C30.9204 19.252 32.6059 19.7002 34.3209 19.6979C39.751 19.6979 44.1704 15.2797 44.1704 9.84841C44.1704 4.41716 39.751 -0.00109863 34.3198 -0.00109863C30.0337 -0.00109863 26.3802 2.75105 25.0289 6.57957C23.5418 5.72541 21.8561 5.27786 20.1412 5.28191C14.711 5.28191 10.2927 9.70017 10.2927 15.1325C10.2924 16.9761 10.8106 18.7826 11.788 20.3457H6.31061C5.75523 20.3462 5.22275 20.5671 4.83004 20.9598C4.43733 21.3526 4.21645 21.885 4.21588 22.4404V52.9053C4.21588 54.06 5.15582 55 6.31061 55H25.9366C26.1503 55 26.3552 54.9151 26.5063 54.764C26.6574 54.6129 26.7422 54.408 26.7422 54.1943C26.7422 53.9806 26.6574 53.7757 26.5063 53.6246C26.3552 53.4735 26.1503 53.3886 25.9366 53.3886H6.31061C6.18292 53.387 6.06094 53.3355 5.97064 53.2452C5.88034 53.1549 5.82888 53.0329 5.82721 52.9053V22.4404C5.82721 22.1794 6.04957 21.957 6.31061 21.957H49.3245C49.5855 21.957 49.8079 22.1794 49.8079 22.4404V31.4069H37.0913C33.6366 31.4069 30.8254 34.2181 30.8254 37.6728C30.8254 41.1275 33.6366 43.9398 37.0913 43.9398H49.8068V52.9053C49.8068 53.1674 49.5855 53.3886 49.3234 53.3886H29.6964C29.4827 53.3886 29.2778 53.4735 29.1267 53.6246C28.9756 53.7757 28.8907 53.9806 28.8907 54.1943C28.8907 54.408 28.9756 54.6129 29.1267 54.764C29.2778 54.9151 29.4827 55 29.6964 55H49.3223C50.4771 55 51.4171 54.06 51.4171 52.9053V39.325C51.4171 39.1113 51.3322 38.9064 51.1811 38.7553C51.03 38.6042 50.8251 38.5193 50.6114 38.5193C50.3977 38.5193 50.1928 38.6042 50.0417 38.7553C49.8906 38.9064 49.8057 39.1113 49.8057 39.325V42.3285H37.0913C34.5239 42.3285 32.4367 40.2402 32.4367 37.6728C32.4367 35.1054 34.525 33.0182 37.0913 33.0182H49.8068V35.5641C49.8068 35.7778 49.8917 35.9827 50.0428 36.1338C50.1939 36.2849 50.3988 36.3698 50.6125 36.3698L50.6114 36.3709ZM13.7657 20.3457C12.5612 18.8754 11.9034 17.0332 11.9041 15.1325C11.9041 10.5907 15.5994 6.89431 20.1422 6.89431C21.7428 6.89431 23.2768 7.34763 24.6078 8.21023C24.526 8.696 24.4807 9.18722 24.4724 9.67976C23.2418 8.7006 21.7149 8.16879 20.1422 8.17156C18.2967 8.17355 16.5273 8.90757 15.2223 10.2126C13.9173 11.5176 13.1833 13.2869 13.1813 15.1325C13.1841 16.1188 13.3958 17.0932 13.8024 17.9918C14.209 18.8903 14.8013 19.6926 15.5403 20.3457H13.7657ZM21.3411 20.3457H18.9434C17.7659 20.0706 16.7155 19.4063 15.9623 18.4602C15.209 17.5142 14.797 16.3418 14.7926 15.1325C14.7941 13.7141 15.3581 12.3543 16.3611 11.3513C17.364 10.3484 18.7239 9.78431 20.1422 9.78289C22.1951 9.78289 24.3317 11.0634 24.987 13.0002C25.2641 13.8187 25.4919 13.9992 25.4919 15.1325C25.4919 17.615 23.7516 19.7946 21.3411 20.3468V20.3457ZM26.5188 20.3457H24.7442C25.904 19.3179 26.6908 17.935 26.9818 16.413C27.3109 16.7831 27.6675 17.1278 28.0485 17.4442C27.7382 18.5044 27.218 19.4915 26.5188 20.3468V20.3457ZM26.0816 9.85056C26.0816 5.33025 29.7608 1.6113 34.3209 1.6113C38.8627 1.6113 42.558 5.30662 42.558 9.85056C42.558 14.3945 38.8627 18.0877 34.3198 18.0877C29.7511 18.0877 26.0816 14.3623 26.0816 9.84949V9.85056Z" fill="black"/>
<path id="Vector_4" d="M40.1131 34.8584H37.3147C35.7313 34.8584 34.4433 36.1475 34.4433 37.7298C34.4433 39.3121 35.7313 40.6012 37.3147 40.6012H40.1131C41.6965 40.6012 42.9844 39.3132 42.9844 37.7298C42.9844 36.1464 41.6954 34.8584 40.1131 34.8584ZM40.1131 38.9898H37.3147C36.9806 38.9896 36.6603 38.8567 36.424 38.6205C36.1878 38.3842 36.0549 38.0639 36.0547 37.7298C36.0547 37.0358 36.6197 36.4697 37.3147 36.4697H40.1131C40.807 36.4697 41.372 37.0358 41.372 37.7298C41.372 38.4237 40.807 38.9898 40.1131 38.9898Z" fill="black"/>
</g>
<defs>
<clipPath id="clip0_10_141">
<rect width="55" height="55" fill="white" transform="translate(0.316467)"/>
</clipPath>
</defs>
</svg>
