<svg width="56" height="56" viewBox="0 0 56 56" fill="none" xmlns="http://www.w3.org/2000/svg">
<g id="Image [MuiBox-root]" clip-path="url(#clip0_10_224)">
<path id="Vector" d="M55.9864 3.79393C55.9906 2.78954 55.6029 1.84637 54.8949 1.13846C54.187 0.430553 53.2428 0.0438343 52.2406 0.0481311C51.2383 0.052428 50.2962 0.445592 49.5851 1.15565C49.2843 1.45643 48.7375 2.10633 48.4389 2.4662C48.3589 2.55549 48.2977 2.66001 48.2591 2.77348C48.2204 2.88695 48.205 3.00706 48.2138 3.12662C48.2226 3.24618 48.2555 3.36273 48.3104 3.46931C48.3653 3.57589 48.4411 3.6703 48.5333 3.74691C48.6255 3.82351 48.7322 3.88074 48.8471 3.91515C48.9619 3.94957 49.0825 3.96047 49.2016 3.94721C49.3208 3.93395 49.436 3.8968 49.5405 3.83798C49.645 3.77916 49.7365 3.69987 49.8096 3.60487C50.278 3.0409 50.6657 2.5951 50.8462 2.41571C51.2222 2.03973 51.7196 1.83241 52.2481 1.83026H52.2556C52.7787 1.83026 53.2675 2.03221 53.6349 2.3996C53.8172 2.58129 53.9615 2.79753 54.0593 3.03565C54.157 3.27378 54.2063 3.52901 54.2042 3.78641C54.2034 4.04716 54.1511 4.30518 54.0505 4.54572C53.9499 4.78626 53.8028 5.0046 53.6177 5.18827C53.2815 5.5245 52.1256 6.44188 50.4702 7.59882C49.9736 6.7462 49.2621 6.03866 48.4068 5.54672C47.5515 5.05478 46.5821 4.79563 45.5954 4.7951H32.548C31.6818 4.79287 30.8237 4.96242 30.0235 5.29395C29.2233 5.62548 28.4967 6.1124 27.8859 6.72655L1.80276 32.8086C1.54316 33.0671 1.33736 33.3745 1.19723 33.713C1.0571 34.0515 0.98543 34.4145 0.986352 34.7808C0.986352 35.5264 1.27639 36.2278 1.80383 36.7553L19.2781 54.2285C19.5373 54.4879 19.8451 54.6936 20.1839 54.8337C20.5227 54.9738 20.8859 55.0456 21.2526 55.0449C21.9669 55.0449 22.6823 54.7731 23.227 54.2285L49.3079 28.1486C49.9221 27.5378 50.4091 26.8113 50.7406 26.011C51.0721 25.2108 51.2417 24.3527 51.2394 23.4865V10.439C51.2394 10.0534 51.1996 9.67743 51.1255 9.31434C53.0118 8.01669 54.3954 6.93173 54.8778 6.44833C55.228 6.10051 55.5062 5.68703 55.6964 5.23155C55.8867 4.77607 55.9852 4.28754 55.9864 3.79393ZM49.4573 23.4865C49.4589 24.1186 49.3352 24.7447 49.0933 25.3287C48.8514 25.9127 48.4961 26.4428 48.0479 26.8886L21.9658 52.9706C21.7764 53.1596 21.5196 53.2657 21.252 53.2657C20.9844 53.2657 20.7277 53.1596 20.5382 52.9706L3.06389 35.4963C2.87375 35.3051 2.76848 35.0515 2.76848 34.7819C2.76848 34.5123 2.87375 34.2588 3.06389 34.0676L29.1459 7.98661C29.5916 7.53875 30.1217 7.1837 30.7054 6.94197C31.2892 6.70024 31.9151 6.57664 32.5469 6.57831H45.5944C46.2905 6.57881 46.9736 6.76732 47.5715 7.12393C48.1693 7.48053 48.6598 7.99199 48.991 8.60428C47.8516 9.3593 46.691 10.0818 45.5106 10.771C45.1694 10.3973 44.7562 10.0966 44.2957 9.88702C43.8352 9.67741 43.337 9.56325 42.8312 9.5514C42.3253 9.53956 41.8224 9.63028 41.3525 9.8181C40.8827 10.0059 40.4558 10.2869 40.0976 10.6442C39.3968 11.3466 39.0033 12.2984 39.0033 13.2906C39.0033 14.2828 39.3968 15.2345 40.0976 15.9369C40.4447 16.2848 40.8571 16.5607 41.3112 16.7487C41.7652 16.9368 42.2519 17.0332 42.7434 17.0326C43.7016 17.0326 44.6598 16.6674 45.3892 15.9369C45.8514 15.474 46.1844 14.8981 46.3547 14.2665C46.5251 13.635 46.527 12.9697 46.3603 12.3372C47.4072 11.7268 48.4391 11.091 49.4551 10.4305V23.4865H49.4573ZM41.9485 13.6896C42.0546 13.9008 42.2403 14.0613 42.4647 14.1356C42.6891 14.2099 42.9339 14.1921 43.1451 14.086C43.6672 13.8228 44.1871 13.5489 44.7028 13.2696C44.7061 13.5305 44.6572 13.7895 44.5588 14.0312C44.4605 14.2728 44.3148 14.4924 44.1302 14.6768C43.7623 15.0437 43.264 15.2497 42.7445 15.2497C42.2249 15.2497 41.7266 15.0437 41.3587 14.6768C40.9916 14.3089 40.7854 13.8103 40.7854 13.2906C40.7854 12.7708 40.9916 12.2722 41.3587 11.9043C41.6854 11.5766 42.1177 11.3754 42.5787 11.3365C43.0398 11.2975 43.4997 11.4234 43.8767 11.6916C43.3718 11.9666 42.8605 12.2341 42.3438 12.494C42.2392 12.5466 42.146 12.6192 42.0695 12.7079C41.993 12.7965 41.9347 12.8993 41.898 13.0104C41.8613 13.1216 41.8469 13.2389 41.8555 13.3556C41.8642 13.4723 41.8958 13.5862 41.9485 13.6907V13.6896Z" fill="black"/>
<path id="Vector_2" d="M27.5367 18.197C27.3003 18.197 27.0735 18.291 26.9063 18.4582C26.7391 18.6254 26.6451 18.8522 26.6451 19.0886V37.9068C26.6451 38.1433 26.7391 38.37 26.9063 38.5372C27.0735 38.7045 27.3003 38.7984 27.5367 38.7984C27.7732 38.7984 28 38.7045 28.1672 38.5372C28.3344 38.37 28.4284 38.1433 28.4284 37.9068V19.0886C28.4284 18.8522 28.3344 18.6254 28.1672 18.4582C28 18.291 27.7732 18.197 27.5367 18.197ZM23.4622 25.8508C22.76 25.1498 21.8082 24.7561 20.8159 24.7561C19.8236 24.7561 18.8718 25.1498 18.1696 25.8508C17.4688 26.5533 17.0752 27.505 17.0752 28.4972C17.0752 29.4894 17.4688 30.4411 18.1696 31.1435C18.5169 31.4914 18.9295 31.7672 19.3837 31.955C19.838 32.1429 20.3249 32.2391 20.8164 32.2381C21.7746 32.2381 22.7328 31.8729 23.4622 31.1435C24.1691 30.4367 24.5579 29.4967 24.5579 28.4977C24.5579 27.4987 24.1691 26.5577 23.4622 25.8508ZM22.2022 29.8834C21.8343 30.2503 21.336 30.4563 20.8164 30.4563C20.2969 30.4563 19.7986 30.2503 19.4307 29.8834C19.0639 29.5156 18.8579 29.0172 18.8579 28.4977C18.8579 27.9782 19.0639 27.4799 19.4307 27.112C19.812 26.7285 20.3148 26.5383 20.8164 26.5383C21.074 26.5376 21.3292 26.5878 21.5673 26.686C21.8054 26.7842 22.0217 26.9285 22.2039 27.1106C22.3861 27.2926 22.5305 27.5089 22.6288 27.747C22.7271 27.985 22.7775 28.2401 22.7769 28.4977C22.7769 29.0208 22.5728 29.5128 22.2022 29.8834ZM36.9039 25.8508C36.2017 25.1498 35.2499 24.7561 34.2576 24.7561C33.2653 24.7561 32.3135 25.1498 31.6113 25.8508C30.9105 26.5533 30.5169 27.505 30.5169 28.4972C30.5169 29.4894 30.9105 30.4411 31.6113 31.1435C31.9586 31.4913 32.3712 31.7671 32.8255 31.955C33.2797 32.1428 33.7666 32.239 34.2581 32.2381C35.2163 32.2381 36.1745 31.8729 36.9039 31.1435C37.6047 30.4411 37.9983 29.4894 37.9983 28.4972C37.9983 27.505 37.6047 26.5533 36.9039 25.8508ZM35.6439 29.8834C35.276 30.2503 34.7777 30.4563 34.2581 30.4563C33.7386 30.4563 33.2403 30.2503 32.8724 29.8834C32.5056 29.5156 32.2996 29.0172 32.2996 28.4977C32.2996 27.9782 32.5056 27.4799 32.8724 27.112C33.2537 26.7285 33.7554 26.5383 34.2581 26.5383C34.7609 26.5383 35.2615 26.7285 35.6439 27.1109C36.011 27.4788 36.2172 27.9774 36.2172 28.4972C36.2172 29.017 36.011 29.5155 35.6439 29.8834Z" fill="black"/>
</g>
<defs>
<clipPath id="clip0_10_224">
<rect width="55" height="55" fill="white" transform="translate(0.986359 0.0471191)"/>
</clipPath>
</defs>
</svg>
