<svg width="56" height="55" viewBox="0 0 56 55" fill="none" xmlns="http://www.w3.org/2000/svg">
<g id="Image [MuiBox-root]" clip-path="url(#clip0_10_121)">
<path id="Vector" d="M55.3033 53.0461L46.1009 45.7346C45.937 45.5959 45.7227 45.5203 45.521 45.5203H30.6081L26.196 42.0032H29.6879L32.146 44.0706C32.3372 44.2295 32.5834 44.3068 32.8311 44.2855C33.0789 44.2643 33.3083 44.1463 33.4697 43.9571C33.5503 43.8621 33.6114 43.7521 33.6493 43.6334C33.6873 43.5147 33.7014 43.3896 33.6908 43.2654C33.6803 43.1412 33.6453 43.0204 33.5879 42.9097C33.5304 42.7991 33.4517 42.701 33.3562 42.6209L30.6459 40.3518C30.4738 40.2047 30.2546 40.1241 30.0282 40.1249H12.8462L2.26979 29.788C2.18232 29.6961 2.07724 29.6228 1.96083 29.5723C1.84442 29.5219 1.71905 29.4954 1.59219 29.4945C1.46533 29.4935 1.33958 29.5181 1.22241 29.5668C1.10525 29.6154 0.999082 29.6871 0.910227 29.7777C0.821371 29.8682 0.751647 29.9758 0.705208 30.0938C0.658769 30.2119 0.636565 30.3381 0.639918 30.4649C0.643271 30.5917 0.672113 30.7166 0.724725 30.832C0.777338 30.9474 0.852645 31.0511 0.946162 31.1368L10.1107 40.1249H8.59801C8.34726 40.1249 8.10678 40.2245 7.92947 40.4018C7.75217 40.5791 7.65256 40.8196 7.65256 41.0704C7.65256 41.3211 7.75217 41.5616 7.92947 41.7389C8.10678 41.9162 8.34726 42.0158 8.59801 42.0158H12.0521L16.8423 46.7052L8.88795 53.0461C8.7157 53.2087 8.61076 53.43 8.59388 53.6662C8.577 53.9025 8.64942 54.1365 8.79681 54.3219C8.94419 54.5073 9.15581 54.6307 9.38978 54.6675C9.62376 54.7044 9.86305 54.6521 10.0603 54.521L18.998 47.4112H45.1806L54.1057 54.521C54.2031 54.5995 54.3151 54.6579 54.4352 54.6928C54.5553 54.7277 54.6811 54.7384 54.8054 54.7243C54.9297 54.7103 55.0499 54.6717 55.1592 54.6108C55.2685 54.5499 55.3646 54.468 55.4419 54.3697C55.7697 53.9663 55.694 53.3612 55.2906 53.0461H55.3033ZM23.1579 42.0032L27.57 45.5329H18.3677L14.7623 42.0032H23.1579Z" fill="black"/>
<path id="Vector_2" d="M3.61866 18.1905H24.4312V38.2845C24.4312 38.5352 24.5308 38.7757 24.7081 38.953C24.8854 39.1303 25.1259 39.2299 25.3766 39.2299C25.6274 39.2299 25.8679 39.1303 26.0452 38.953C26.2225 38.7757 26.3221 38.5352 26.3221 38.2845V18.1905H47.1472C47.2968 18.1917 47.4447 18.1574 47.5785 18.0903C47.7123 18.0233 47.8283 17.9254 47.9169 17.8048C48.0055 17.6842 48.0642 17.5443 48.0882 17.3966C48.1122 17.2488 48.1007 17.0975 48.0548 16.9551C46.5515 12.1797 43.5888 7.99576 39.5836 4.99199C35.4872 1.91622 30.4992 0.260914 25.3766 0.277343C20.2082 0.277343 15.3044 1.91612 11.1823 4.99199C7.1749 7.99906 4.212 12.1877 2.71103 16.9677C2.66755 17.1094 2.65799 17.2593 2.68313 17.4054C2.70826 17.5514 2.76738 17.6895 2.85572 17.8085C2.94405 17.9275 3.05913 18.0241 3.19165 18.0905C3.32418 18.1568 3.47045 18.1911 3.61866 18.1905ZM12.3168 6.50471C16.0986 3.66836 20.6368 2.16824 25.3766 2.16824C30.1165 2.16824 34.6546 3.65575 38.4491 6.50471C41.7834 9.00726 44.3403 12.4034 45.8236 16.2996H4.94229C6.42557 12.4034 8.9825 9.00726 12.3168 6.50471ZM25.3766 48.1802C25.1259 48.1802 24.8854 48.2798 24.7081 48.4571C24.5308 48.6344 24.4312 48.8749 24.4312 49.1256V53.6638C24.4312 53.9145 24.5308 54.155 24.7081 54.3323C24.8854 54.5096 25.1259 54.6092 25.3766 54.6092C25.6274 54.6092 25.8679 54.5096 26.0452 54.3323C26.2225 54.155 26.3221 53.9145 26.3221 53.6638V49.1256C26.3221 48.5962 25.9061 48.1802 25.3766 48.1802Z" fill="black"/>
</g>
<defs>
<clipPath id="clip0_10_121">
<rect width="55" height="55" fill="white" transform="translate(0.65625)"/>
</clipPath>
</defs>
</svg>
