<svg width="56" height="56" viewBox="0 0 56 56" fill="none" xmlns="http://www.w3.org/2000/svg">
<g id="Image [MuiBox-root]" clip-path="url(#clip0_10_216)">
<path id="Vector" d="M42.669 19.3723L40.0715 16.7737C39.9067 16.6081 39.7106 16.4767 39.4947 16.3873C39.2788 16.2979 39.0473 16.2521 38.8136 16.2527C38.3377 16.2527 37.8908 16.4375 37.5546 16.7737L37.5138 16.8146L29.6387 8.93838L29.6795 8.89756C30.0157 8.56241 30.2005 8.11446 30.2005 7.63965C30.2005 7.16485 30.0157 6.7169 29.6795 6.38067L27.081 3.78321C26.7469 3.45004 26.2943 3.26294 25.8225 3.26294C25.3507 3.26294 24.8981 3.45004 24.5641 3.78321L18.0693 10.2779C17.7362 10.612 17.5491 11.0646 17.5491 11.5364C17.5491 12.0082 17.7362 12.4608 18.0693 12.7948L20.6668 15.3934C21.0009 15.7265 21.4534 15.9136 21.9253 15.9136C22.3971 15.9136 22.8496 15.7265 23.1837 15.3934L23.2245 15.3525L24.6049 16.7329L23.2653 18.0725C23.0395 18.2967 22.8784 18.5777 22.799 18.8859C22.7196 19.1941 22.7248 19.518 22.8142 19.8234L1.44581 41.1897C1.1946 41.4397 0.995475 41.737 0.859949 42.0645C0.724423 42.392 0.655192 42.7431 0.656262 43.0975C0.656262 43.8183 0.936633 44.4961 1.44689 45.0064C1.6973 45.2569 1.99475 45.4556 2.32214 45.5909C2.64954 45.7262 3.00044 45.7955 3.3547 45.7948C4.04542 45.7948 4.73615 45.5316 5.26251 45.0064L26.6287 23.6401C26.7877 23.6842 26.9521 23.7089 27.1218 23.7089C27.5966 23.7089 28.0435 23.5241 28.3797 23.1879L29.7192 21.8483L31.0996 23.2287L31.0599 23.2685C30.8939 23.4333 30.7623 23.6295 30.6727 23.8456C30.583 24.0617 30.5372 24.2935 30.5378 24.5274C30.5378 25.0023 30.7226 25.4491 31.0588 25.7854L33.6573 28.3839C33.9936 28.7201 34.4404 28.9049 34.9163 28.9049C35.3922 28.9049 35.838 28.7201 36.1742 28.3839L42.67 21.8881C43.0063 21.5529 43.191 21.1061 43.191 20.6302C43.191 20.1543 43.0063 19.7074 42.67 19.3723H42.669ZM4.04542 43.7882C3.90855 43.9236 3.73474 44.0156 3.5458 44.0526C3.35685 44.0896 3.16118 44.07 2.98334 43.9962C2.8055 43.9224 2.65341 43.7978 2.54614 43.6379C2.43887 43.478 2.38121 43.29 2.38038 43.0975C2.38038 42.8375 2.48136 42.5926 2.66505 42.4078L23.8734 21.1984L25.2537 22.5788L4.04435 43.7882H4.04542ZM27.1626 21.9708C27.1594 21.974 27.1465 21.9869 27.1229 21.9869C27.0992 21.9869 27.0863 21.974 27.082 21.9697L24.4824 19.3723C24.4781 19.369 24.4663 19.3562 24.4663 19.3325C24.4663 19.3089 24.4781 19.296 24.4824 19.2917L25.822 17.9522L28.5022 20.6313L27.1615 21.9708H27.1626ZM41.4529 20.671L34.9571 27.1657C34.9528 27.17 34.941 27.1829 34.9174 27.1829C34.8938 27.1829 34.8809 27.17 34.8766 27.1657L32.278 24.5683C32.2737 24.564 32.2619 24.5511 32.2619 24.5274C32.2619 24.5038 32.2737 24.4909 32.278 24.4866L32.9279 23.8367C33.0891 23.6752 33.1796 23.4564 33.1796 23.2282C33.1796 23 33.0891 22.7811 32.9279 22.6196L24.4438 14.1344L26.4321 12.146C26.5168 12.0672 26.5847 11.9721 26.6318 11.8664C26.6789 11.7608 26.7043 11.6467 26.7064 11.531C26.7085 11.4154 26.6872 11.3005 26.6439 11.1932C26.6007 11.0859 26.5362 10.9885 26.4545 10.9066C26.3727 10.8248 26.2753 10.7603 26.168 10.7169C26.0608 10.6735 25.9459 10.6522 25.8302 10.6541C25.7146 10.6561 25.6005 10.6814 25.4948 10.7284C25.3891 10.7754 25.294 10.8432 25.215 10.9278L21.9666 14.1752C21.9451 14.1978 21.9086 14.1978 21.886 14.1752L19.2875 11.5777C19.2768 11.5669 19.2707 11.5522 19.2707 11.5369C19.2707 11.5216 19.2768 11.507 19.2875 11.4961L25.7833 5.00137C25.8048 4.97881 25.8413 4.97881 25.8639 5.00137L28.4624 7.59883C28.4839 7.62032 28.4839 7.65791 28.4624 7.68047L27.8157 8.32608L27.8018 8.34112C27.6453 8.50357 27.5587 8.72092 27.5607 8.94648C27.5628 9.17205 27.6532 9.38782 27.8125 9.54746L36.2978 18.0327L34.3083 20.0211C34.2281 20.101 34.1644 20.1959 34.121 20.3004C34.0776 20.4049 34.0552 20.517 34.0552 20.6302C34.0552 20.7434 34.0776 20.8554 34.121 20.96C34.1644 21.0645 34.2281 21.1594 34.3083 21.2393C34.4698 21.4004 34.6887 21.491 34.9169 21.491C35.145 21.491 35.3639 21.4004 35.5254 21.2393L38.7738 17.9919C38.7781 17.9876 38.79 17.9747 38.8147 17.9747C38.8394 17.9747 38.8512 17.9876 38.8544 17.9919L41.4529 20.5894C41.4572 20.5937 41.4701 20.6065 41.4701 20.6302C41.4701 20.6538 41.4572 20.6667 41.4529 20.671ZM55.6305 50.7609L55.0601 48.4793C54.9148 47.8951 54.5781 47.3763 54.1036 47.0058C53.6291 46.6353 53.0442 46.4343 52.4422 46.4351H51.9824V44.5401C51.9824 43.5594 51.1832 42.7602 50.2025 42.7602H37.3408C36.8689 42.7607 36.4165 42.9484 36.0828 43.2821C35.7491 43.6158 35.5614 44.0682 35.5609 44.5401V46.4351H35.1011C34.4991 46.4343 33.9141 46.6353 33.4397 47.0058C32.9652 47.3763 32.6284 47.8951 32.4832 48.4793L31.9128 50.762C31.8809 50.889 31.8785 51.0216 31.9056 51.1497C31.9327 51.2778 31.9887 51.398 32.0693 51.5012C32.1499 51.6043 32.253 51.6878 32.3707 51.7451C32.4884 51.8024 32.6176 51.8321 32.7485 51.8319H54.7937C54.9245 51.8319 55.0537 51.8021 55.1713 51.7447C55.2889 51.6873 55.3919 51.6039 55.4724 51.5008C55.553 51.3976 55.609 51.2775 55.6362 51.1495C55.6634 51.0215 55.6611 50.889 55.6294 50.762L55.6305 50.7609ZM33.8518 50.1089L34.1558 48.8961C34.2083 48.6851 34.3299 48.4977 34.5012 48.3638C34.6725 48.2299 34.8836 48.1571 35.1011 48.157H38.2604C38.4834 48.1492 38.6948 48.055 38.8498 47.8944C39.0048 47.7338 39.0915 47.5193 39.0915 47.2961C39.0915 47.0728 39.0048 46.8583 38.8498 46.6977C38.6948 46.5371 38.4834 46.4429 38.2604 46.4351H37.285V44.5401C37.285 44.5079 37.3108 44.4832 37.3419 44.4832H50.2025C50.2347 44.4832 50.2594 44.5079 50.2594 44.5401V46.4351H41.9342C41.7111 46.4429 41.4998 46.5371 41.3448 46.6977C41.1897 46.8583 41.1031 47.0728 41.1031 47.2961C41.1031 47.5193 41.1897 47.7338 41.3448 47.8944C41.4998 48.055 41.7111 48.1492 41.9342 48.157H52.4422C52.8901 48.157 53.2801 48.461 53.3886 48.8961L53.6915 50.11H33.8518V50.1089ZM43.7722 34.493C43.5437 34.493 43.3246 34.5837 43.163 34.7453C43.0014 34.9069 42.9107 35.126 42.9107 35.3545V39.9479C42.9107 40.1763 43.0014 40.3955 43.163 40.557C43.3246 40.7186 43.5437 40.8094 43.7722 40.8094C44.0007 40.8094 44.2198 40.7186 44.3814 40.557C44.5429 40.3955 44.6337 40.1763 44.6337 39.9479V35.3545C44.6337 35.126 44.5429 34.9069 44.3814 34.7453C44.2198 34.5837 44.0007 34.493 43.7722 34.493ZM48.7501 37.3397C48.6489 37.2891 48.5387 37.2589 48.4258 37.2509C48.313 37.2429 48.1996 37.2572 48.0923 37.2931C47.985 37.3289 47.8857 37.3855 47.8003 37.4596C47.7148 37.5338 47.6448 37.6241 47.5943 37.7253L46.6758 39.5622C46.6252 39.6634 46.5951 39.7736 46.5871 39.8865C46.5791 39.9993 46.5934 40.1127 46.6292 40.22C46.665 40.3273 46.7216 40.4266 46.7958 40.512C46.87 40.5975 46.9602 40.6675 47.0614 40.7181C47.1627 40.7686 47.2728 40.7988 47.3857 40.8068C47.4986 40.8148 47.6119 40.8004 47.7192 40.7646C47.8266 40.7288 47.9258 40.6722 48.0113 40.5981C48.0967 40.5239 48.1667 40.4336 48.2173 40.3324L49.1358 38.4955C49.1863 38.3943 49.2165 38.2841 49.2245 38.1712C49.2325 38.0584 49.2182 37.945 49.1824 37.8377C49.1465 37.7304 49.0899 37.6311 49.0158 37.5457C48.9416 37.4602 48.8513 37.3902 48.7501 37.3397ZM40.8675 39.5622L39.949 37.7253C39.8985 37.6242 39.8285 37.534 39.743 37.4599C39.6576 37.3858 39.5584 37.3292 39.4511 37.2935C39.3439 37.2577 39.2306 37.2434 39.1178 37.2514C39.005 37.2595 38.8949 37.2896 38.7937 37.3402C38.6926 37.3908 38.6024 37.4608 38.5283 37.5462C38.4542 37.6316 38.3976 37.7308 38.3619 37.8381C38.3261 37.9454 38.3118 38.0587 38.3199 38.1714C38.3279 38.2842 38.358 38.3944 38.4086 38.4955L39.3281 40.3324C39.3755 40.4388 39.4439 40.5344 39.5292 40.6136C39.6145 40.6928 39.715 40.7539 39.8246 40.7931C39.9342 40.8324 40.0506 40.849 40.1668 40.8421C40.283 40.8351 40.3966 40.8046 40.5007 40.7525C40.6048 40.7005 40.6973 40.6278 40.7725 40.539C40.8478 40.4502 40.9043 40.347 40.9385 40.2358C40.9728 40.1245 40.9842 40.0075 40.972 39.8917C40.9598 39.776 40.9242 39.6639 40.8675 39.5622Z" fill="black"/>
</g>
<defs>
<clipPath id="clip0_10_216">
<rect width="55" height="55" fill="white" transform="translate(0.65625 0.0471191)"/>
</clipPath>
</defs>
</svg>
