<svg width="56" height="56" viewBox="0 0 56 56" fill="none" xmlns="http://www.w3.org/2000/svg">
<g id="Image [MuiBox-root]" clip-path="url(#clip0_10_234)">
<path id="Vector" d="M38.838 7.39478H36.088C34.7882 7.39478 33.7032 8.3186 33.4454 9.54321C25.1821 13.4835 16.3523 16.1041 7.27741 17.3098C6.50397 17.4172 5.8487 17.8254 5.41901 18.4163H3.01276C2.29766 18.4163 1.61185 18.7003 1.1062 19.206C0.600546 19.7116 0.316473 20.3974 0.316473 21.1125V26.6233C0.315059 26.9783 0.383757 27.33 0.518625 27.6584C0.653493 27.9868 0.851876 28.2853 1.10239 28.5368C1.3529 28.7883 1.65062 28.9879 1.97845 29.1241C2.30628 29.2602 2.65777 29.3303 3.01276 29.3303H5.41901C5.8487 29.9104 6.50397 30.3293 7.27741 30.4368L7.68561 30.4905L11.918 45.7229C12.2403 46.8831 13.3145 47.6995 14.5176 47.6995H20.4688C20.6967 47.6995 20.9153 47.6089 21.0765 47.4478C21.2376 47.2866 21.3282 47.068 21.3282 46.8401C21.3282 46.6122 21.2376 46.3936 21.0765 46.2324C20.9153 46.0713 20.6967 45.9807 20.4688 45.9807H20.1895L16.3546 32.1448C25.378 34.3469 31.8233 37.4084 33.4346 38.2034C33.5625 38.8099 33.8948 39.3542 34.3757 39.7452C34.8567 40.1363 35.4573 40.3504 36.0772 40.3518H38.8272C39.1813 40.3518 39.5319 40.2821 39.859 40.1466C40.1862 40.0111 40.4834 39.8125 40.7338 39.5621C40.9842 39.3117 41.1828 39.0145 41.3183 38.6873C41.4538 38.3602 41.5235 38.0096 41.5235 37.6555V10.0911C41.5207 9.37968 41.2368 8.69825 40.7338 8.19522C40.2308 7.6922 39.5493 7.40835 38.838 7.40552V7.39478ZM4.91413 27.6008H3.00202C2.46491 27.6008 2.03522 27.1711 2.03522 26.634V21.1018C2.03522 20.5647 2.46491 20.135 3.00202 20.135H4.90339V27.5901L4.91413 27.6008ZM18.4171 45.97H14.5176C14.088 45.97 13.6905 45.6799 13.5723 45.261L9.55475 30.759C11.2 31.0264 12.8371 31.3416 14.4639 31.7043L18.4278 45.9807L18.4171 45.97ZM39.8155 37.6555C39.8155 38.1926 39.3858 38.6223 38.8487 38.6223H36.088C35.5508 38.6223 35.1104 38.1926 35.1104 37.6555V17.4495C35.1104 17.2215 35.0199 17.003 34.8587 16.8418C34.6976 16.6806 34.479 16.5901 34.251 16.5901C34.0231 16.5901 33.8045 16.6806 33.6434 16.8418C33.4822 17.003 33.3917 17.2215 33.3917 17.4495V36.2698C25.1873 32.477 16.4608 29.9351 7.503 28.7288C7.00886 28.6643 6.63288 28.2454 6.63288 27.762V19.9846C6.63288 19.5012 7.00886 19.0823 7.49225 19.0178C16.45 17.8113 25.1765 15.2694 33.3809 11.4768V13.7649C33.3809 13.9928 33.4715 14.2114 33.6326 14.3726C33.7938 14.5337 34.0124 14.6243 34.2403 14.6243C34.4682 14.6243 34.6868 14.5337 34.848 14.3726C35.0091 14.2114 35.0997 13.9928 35.0997 13.7649V10.1018C35.0997 9.5647 35.5401 9.11353 36.088 9.11353H38.838C39.3751 9.11353 39.8155 9.55395 39.8155 10.0911V37.6555ZM54.4571 23.0139H45.2725C45.0446 23.0139 44.826 23.1045 44.6649 23.2656C44.5037 23.4268 44.4132 23.6454 44.4132 23.8733C44.4132 24.1012 44.5037 24.3198 44.6649 24.481C44.826 24.6421 45.0446 24.7327 45.2725 24.7327H54.4571C54.685 24.7327 54.9036 24.6421 55.0648 24.481C55.2259 24.3198 55.3165 24.1012 55.3165 23.8733C55.3165 23.6454 55.2259 23.4268 55.0648 23.2656C54.9036 23.1045 54.685 23.0139 54.4571 23.0139ZM52.4913 14.345C52.4015 14.1356 52.2322 13.9705 52.0207 13.8859C51.8092 13.8013 51.5728 13.8042 51.3633 13.8938L50.4395 14.2913C50.3326 14.3334 50.2351 14.3966 50.1531 14.4771C50.071 14.5576 50.0059 14.6538 49.9616 14.7599C49.9173 14.866 49.8948 14.9799 49.8954 15.0949C49.8959 15.2099 49.9196 15.3236 49.9649 15.4293C50.0101 15.5349 50.0762 15.6305 50.1591 15.7102C50.2419 15.7898 50.3399 15.8521 50.4473 15.8932C50.5547 15.9344 50.6692 15.9535 50.7841 15.9496C50.899 15.9457 51.012 15.9187 51.1163 15.8704L52.0401 15.4836C52.1451 15.4392 52.2402 15.3744 52.3198 15.2928C52.3995 15.2113 52.4621 15.1148 52.5041 15.0088C52.5461 14.9028 52.5666 14.7895 52.5644 14.6756C52.5622 14.5616 52.5373 14.4492 52.4913 14.345ZM48.8175 15.9241C48.7276 15.7147 48.5584 15.5496 48.3469 15.465C48.1354 15.3804 47.8989 15.3833 47.6895 15.4729L44.9288 16.6545C44.8218 16.6967 44.7244 16.7599 44.6423 16.8404C44.5602 16.9209 44.4951 17.0171 44.4509 17.1232C44.4066 17.2293 44.3841 17.3432 44.3846 17.4582C44.3852 17.5732 44.4088 17.6869 44.4541 17.7925C44.4994 17.8982 44.5654 17.9937 44.6483 18.0734C44.7312 18.1531 44.8292 18.2154 44.9366 18.2565C45.0439 18.2976 45.1585 18.3168 45.2734 18.3129C45.3883 18.309 45.5012 18.282 45.6055 18.2336L48.3663 17.052C48.5756 16.9622 48.7407 16.7929 48.8253 16.5814C48.9099 16.3699 48.9071 16.1335 48.8175 15.9241ZM52.0401 32.2737L51.1163 31.8762C51.012 31.8279 50.899 31.8009 50.7841 31.797C50.6692 31.793 50.5547 31.8122 50.4473 31.8533C50.3399 31.8945 50.2419 31.9567 50.1591 32.0364C50.0762 32.1161 50.0101 32.2116 49.9649 32.3173C49.9196 32.423 49.8959 32.5367 49.8954 32.6517C49.8948 32.7666 49.9173 32.8806 49.9616 32.9867C50.0059 33.0928 50.071 33.1889 50.1531 33.2694C50.2351 33.3499 50.3326 33.4131 50.4395 33.4553L51.3633 33.8528C51.5728 33.9424 51.8092 33.9453 52.0207 33.8607C52.2322 33.7761 52.4015 33.6109 52.4913 33.4016C52.5373 33.2973 52.5622 33.185 52.5644 33.071C52.5666 32.957 52.5461 32.8438 52.5041 32.7378C52.4621 32.6318 52.3995 32.5353 52.3198 32.4538C52.2402 32.3722 52.1451 32.3074 52.0401 32.2629V32.2737ZM48.3663 30.6946L45.6055 29.5129C45.3976 29.4309 45.1658 29.4332 44.9595 29.5193C44.7532 29.6053 44.5885 29.7684 44.5004 29.9739C44.4124 30.1794 44.4078 30.4111 44.4878 30.6198C44.5678 30.8286 44.726 30.998 44.9288 31.092L47.6895 32.2737C47.8989 32.3633 48.1354 32.3662 48.3469 32.2816C48.5584 32.197 48.7276 32.0318 48.8175 31.8225C48.9071 31.6131 48.9099 31.3767 48.8253 31.1652C48.7407 30.9537 48.5756 30.7844 48.3663 30.6946Z" fill="black"/>
</g>
<defs>
<clipPath id="clip0_10_234">
<rect width="55" height="55" fill="white" transform="translate(0.316467 0.0471191)"/>
</clipPath>
</defs>
</svg>
