<svg width="56" height="55" viewBox="0 0 56 55" fill="none" xmlns="http://www.w3.org/2000/svg">
<g id="Image [MuiBox-root]" clip-path="url(#clip0_10_131)">
<path id="Vector" d="M28.4852 15.5369C21.8896 15.5369 16.5232 20.9032 16.5232 27.4989C16.5232 34.0945 21.8896 39.462 28.4852 39.462C35.0808 39.462 40.4483 34.0956 40.4483 27.4989C40.4483 20.9021 35.082 15.5369 28.4852 15.5369ZM36.5045 21.1756L33.2404 24.4397C32.8023 23.7611 32.225 23.1834 31.5467 22.7448L34.8108 19.4819C35.4393 19.9787 36.0077 20.5471 36.5045 21.1756ZM38.7022 27.4989C38.7022 27.9051 38.6778 28.3044 38.6324 28.6978H34.0145C34.1857 27.9085 34.1857 27.0916 34.0145 26.3022H38.6312C38.6778 26.6945 38.7011 27.0938 38.7011 27.4989H38.7022ZM28.4852 31.4101C26.3293 31.4101 24.5739 29.6559 24.5739 27.4989C24.5739 25.3418 26.3282 23.5876 28.4852 23.5876C30.6422 23.5876 32.3965 25.3418 32.3965 27.4989C32.3965 29.6559 30.6422 31.4101 28.4852 31.4101ZM18.2693 27.4989C18.2693 27.0938 18.2938 26.6956 18.3392 26.3022H22.957C22.7859 27.0916 22.7859 27.9085 22.957 28.6978H18.3403C18.2938 28.3044 18.2693 27.9051 18.2693 27.4989ZM18.7023 24.5561C18.8998 23.9007 19.1631 23.2669 19.4881 22.6645L21.3785 24.5561H18.7012H18.7023ZM21.3797 30.4439L19.4881 32.3344C19.1632 31.7323 18.8999 31.099 18.7023 30.4439H21.3797ZM38.2692 30.4439C38.0717 31.099 37.8084 31.7323 37.4835 32.3344L35.593 30.4439H38.2692ZM35.593 24.5561L37.4835 22.6656C37.8084 23.2677 38.0717 23.9011 38.2692 24.5561H35.593ZM31.4303 20.3922V17.7172C32.0853 17.9147 32.7187 18.178 33.3207 18.5029L31.4303 20.3934V20.3922ZM29.6842 17.354V21.9707C28.8948 21.7996 28.0779 21.7996 27.2885 21.9707V17.354C28.0843 17.2605 28.8884 17.2605 29.6842 17.354ZM25.5424 20.3922L23.6508 18.5018C24.2533 18.1767 24.887 17.9135 25.5424 17.716V20.3934V20.3922ZM22.162 19.4807L25.4249 22.7448C24.7467 23.183 24.1694 23.7603 23.7311 24.4385L20.4682 21.1756C20.965 20.5467 21.5334 19.9779 22.162 19.4807ZM20.4682 33.8244L23.7311 30.5604C24.1697 31.2386 24.7474 31.816 25.426 32.2541L22.162 35.5181C21.5334 35.0214 20.965 34.4529 20.4682 33.8244ZM25.5424 34.6067V37.2829C24.8874 37.0853 24.2541 36.822 23.652 36.4971L25.5424 34.6067ZM27.2885 37.6449V33.0282C28.0779 33.1993 28.8948 33.1993 29.6842 33.0282V37.6449C28.8884 37.7382 28.0844 37.7382 27.2885 37.6449ZM31.4303 34.6067L33.3207 36.4971C32.7187 36.8221 32.0853 37.0853 31.4303 37.2829V34.6067ZM34.8096 35.517L31.5467 32.2541C32.2248 31.8158 32.8021 31.2385 33.2404 30.5604L36.5033 33.8232C36.0065 34.4517 35.4381 35.0202 34.8096 35.517Z" fill="black"/>
<path id="Vector_2" d="M55.047 25.3418C54.7507 25.0666 54.4012 24.8551 54.02 24.7204C53.6387 24.5856 53.2339 24.5305 52.8306 24.5584L45.9649 25.0426C45.5495 22.0784 44.3835 19.2695 42.5774 16.8825L47.7738 12.3717C48.2352 11.9723 48.5614 11.4395 48.7075 10.847C48.8535 10.2544 48.8122 9.63113 48.5893 9.06299C48.3664 8.49486 47.9728 8.00981 47.4628 7.67466C46.9527 7.33952 46.3513 7.17076 45.7414 7.19163C45.3373 7.20662 44.9406 7.30434 44.5758 7.47873C44.211 7.65313 43.8858 7.90049 43.6204 8.20553L39.1027 13.4089C36.7161 11.603 33.9076 10.437 30.9437 10.0215L31.4268 3.16511C31.4705 2.55659 31.3245 1.94949 31.0089 1.42738C30.6933 0.90526 30.2236 0.493793 29.6646 0.249608C29.1055 0.0054234 28.4844 -0.0594739 27.887 0.0638485C27.2895 0.187171 26.7449 0.49265 26.3282 0.938241C26.0528 1.23462 25.8412 1.58434 25.7065 1.96577C25.5717 2.34721 25.5167 2.75223 25.5448 3.15579L26.0278 10.0203C23.064 10.4359 20.2555 11.6019 17.8689 13.4078L13.3523 8.2067C13.0867 7.90151 12.7614 7.65407 12.3964 7.47967C12.0314 7.30527 11.6344 7.20763 11.2302 7.19279C10.8259 7.17903 10.423 7.24837 10.0466 7.39654C9.67019 7.54471 9.32817 7.76855 9.04173 8.0542C8.75592 8.34079 8.532 8.68299 8.38383 9.05963C8.23566 9.43627 8.16639 9.83932 8.18031 10.2438C8.20825 11.0587 8.5761 11.8328 9.19306 12.3682L14.3941 16.8848C12.5884 19.2711 11.4223 22.0792 11.0067 25.0426L4.14332 24.5596C3.73978 24.5318 3.33483 24.587 2.95343 24.7217C2.57204 24.8564 2.2223 25.0679 1.92576 25.343C1.63006 25.6192 1.39414 25.9532 1.23257 26.3242C1.07099 26.6952 0.987197 27.0953 0.986359 27.5C0.986359 28.3148 1.3286 29.0994 1.92344 29.6559C2.22009 29.9316 2.57014 30.1436 2.95195 30.2788C3.33377 30.4139 3.73924 30.4693 4.14332 30.4416L11.0078 29.9574C11.4232 32.9216 12.5892 35.7305 14.3953 38.1175L9.19189 42.6329C8.88692 42.8986 8.63969 43.224 8.4655 43.589C8.2913 43.954 8.19384 44.3508 8.17915 44.755C8.15005 45.5699 8.46435 46.3684 9.04056 46.9458C9.32709 47.2313 9.66912 47.4551 10.0455 47.6033C10.4219 47.7514 10.8247 47.8208 11.229 47.8072C12.0439 47.7781 12.818 47.4091 13.3534 46.7945L17.87 41.5911C20.2567 43.3969 23.0652 44.563 26.029 44.9785L25.5448 51.843C25.5167 52.2466 25.5717 52.6516 25.7065 53.0331C25.8412 53.4145 26.0528 53.7642 26.3282 54.0606C26.6045 54.3565 26.9386 54.5925 27.3098 54.7541C27.6811 54.9157 28.0815 54.9994 28.4864 55C29.3012 55 30.0858 54.6578 30.6422 54.0629C30.918 53.7663 31.13 53.4162 31.2651 53.0344C31.4003 52.6526 31.4557 52.2471 31.428 51.843L30.9437 44.9785C33.9761 44.5536 36.7641 43.3558 39.1027 41.5911L43.6146 46.7875C43.89 47.1082 44.2315 47.3655 44.6157 47.5417C44.9999 47.7179 45.4176 47.8089 45.8403 47.8084H45.8473C46.6342 47.8084 47.3746 47.5022 47.931 46.9458C48.217 46.6591 48.4412 46.3167 48.5896 45.9399C48.7379 45.5631 48.8074 45.1598 48.7936 44.755C48.7787 44.351 48.6812 43.9544 48.507 43.5896C48.3328 43.2248 48.0857 42.8996 47.7808 42.6341L42.5774 38.1163C44.3834 35.7297 45.5494 32.9212 45.9649 29.9574L52.8213 30.4416C53.4299 30.4853 54.0372 30.3392 54.5594 30.0235C55.0816 29.7078 55.4931 29.2379 55.7372 28.6786C55.9813 28.1193 56.046 27.4981 55.9223 26.9005C55.7987 26.3029 55.4929 25.7584 55.047 25.3418ZM44.9393 9.34981C45.0468 9.22496 45.1791 9.12384 45.3278 9.0529C45.4765 8.98195 45.6384 8.94273 45.8031 8.93773C46.0519 8.92844 46.2974 8.9966 46.5059 9.13282C46.7143 9.26904 46.8753 9.4666 46.9666 9.69822C47.0579 9.92984 47.0751 10.1841 47.0158 10.4259C46.9565 10.6677 46.8236 10.8852 46.6354 11.0482L41.4576 15.5438C41.1328 15.1911 40.7941 14.8535 40.4425 14.5288L44.9393 9.34981ZM27.2862 3.0324C27.2737 2.86794 27.2956 2.70268 27.3505 2.54715C27.4055 2.39162 27.4922 2.24924 27.6052 2.12908C27.7748 1.94758 27.9965 1.82303 28.2398 1.77252C28.483 1.72201 28.736 1.74803 28.9639 1.84699C29.1918 1.94595 29.3835 2.11302 29.5126 2.32526C29.6418 2.5375 29.7021 2.78451 29.6854 3.0324L29.2046 9.8655C28.726 9.8461 28.2468 9.8461 27.7681 9.8655L27.2862 3.0324ZM10.3373 11.047C10.2121 10.939 10.1107 10.8061 10.0396 10.6568C9.96844 10.5075 9.92911 10.3451 9.92409 10.1798C9.91245 9.84221 10.037 9.52559 10.2756 9.28812C10.392 9.17085 10.5314 9.07905 10.6851 9.01853C10.8388 8.95802 11.0034 8.9301 11.1685 8.93657C11.5061 8.94821 11.8134 9.09488 12.0346 9.34981L16.529 14.5264C16.1771 14.851 15.8385 15.1896 15.514 15.5415L10.3385 11.0482L10.3373 11.047ZM4.02225 28.7002C3.68467 28.7234 3.36339 28.6094 3.11544 28.3789C2.99435 28.2669 2.89787 28.1309 2.83214 27.9796C2.76641 27.8283 2.73286 27.665 2.73363 27.5C2.73363 27.1624 2.86982 26.8493 3.11777 26.62C3.23783 26.5068 3.38017 26.4198 3.5357 26.3647C3.69123 26.3096 3.85654 26.2875 4.02109 26.2998L10.8519 26.7818C10.8327 27.2604 10.8327 27.7396 10.8519 28.2182L4.02225 28.7002ZM12.0357 45.649C11.9276 45.774 11.7947 45.8752 11.6454 45.9461C11.4961 46.0171 11.3337 46.0562 11.1685 46.0611C10.8321 46.0727 10.5154 45.9482 10.2768 45.7107C10.1593 45.5943 10.0674 45.4547 10.0069 45.3007C9.94636 45.1468 9.91856 44.982 9.92526 44.8167C9.9369 44.4791 10.0836 44.173 10.3385 43.9518L15.5163 39.4562C15.8409 39.808 16.1795 40.1467 16.5314 40.4712L12.0334 45.6479L12.0357 45.649ZM29.6877 51.9653C29.711 52.3028 29.5969 52.6241 29.3664 52.8709C29.2545 52.9922 29.1185 53.0889 28.9672 53.1549C28.8159 53.2208 28.6526 53.2545 28.4875 53.2539C28.1499 53.2539 27.8368 53.1177 27.6075 52.8698C27.4944 52.7496 27.4076 52.6073 27.3524 52.4518C27.2973 52.2962 27.2752 52.131 27.2874 51.9664L27.7693 45.1333C28.2479 45.1525 28.7271 45.1525 29.2058 45.1333L29.6877 51.9653ZM46.6365 43.953C46.7616 44.0604 46.8629 44.1926 46.9341 44.3413C47.0052 44.49 47.0446 44.6519 47.0498 44.8167C47.0614 45.1543 46.9369 45.4721 46.6982 45.7107C46.5869 45.8226 46.4545 45.9113 46.3086 45.9716C46.1627 46.032 46.0063 46.0628 45.8485 46.0623H45.845C45.6734 46.0625 45.5037 46.0257 45.3476 45.9544C45.1915 45.883 45.0527 45.7789 44.9405 45.649L40.4437 40.4701C40.7952 40.1465 41.134 39.8066 41.4588 39.455L46.6377 43.953H46.6365ZM28.4864 43.4035C19.7174 43.4035 12.5828 36.2689 12.5828 27.4988C12.5828 18.7287 19.7163 11.5953 28.4852 11.5953C37.2541 11.5953 44.3899 18.7299 44.3899 27.4988C44.3899 36.2678 37.2553 43.4035 28.4852 43.4035H28.4864ZM53.0413 28.7025C53.0157 28.7025 52.99 28.7025 52.9551 28.7002L46.122 28.2182C46.1414 27.7396 46.1414 27.2604 46.122 26.7818L52.9551 26.2998C53.2904 26.2766 53.6117 26.3895 53.8584 26.6188C54.0348 26.7834 54.1577 26.9972 54.2111 27.2325C54.2645 27.4678 54.2459 27.7137 54.1578 27.9383C54.0698 28.1629 53.9162 28.3559 53.7171 28.4921C53.518 28.6284 53.2825 28.7017 53.0413 28.7025Z" fill="black"/>
</g>
<defs>
<clipPath id="clip0_10_131">
<rect width="55" height="55" fill="white" transform="translate(0.986359)"/>
</clipPath>
</defs>
</svg>
